. 
  
http://www.torrentday.com/        :     The Hottest Private Tracker On The Net!!!
 
http://www.torrentday.com          :     Once & For all ;)


               www . TorrentDay . Com 

(((((((((((((= Enjoy No RAR releases =))))))))))))))))))))


...................................NFO:....................................

.[img]http://www.leetleech.org/images/90978875635792077892.jpg[/img]

::::::::::::::Enjoy:Another:Release:From:T0XiC::::::::::::::

File:: The.Green.Hornet.2010.TS.XViD-T0XiC-iNK
Video Source:: ....Team Serenity. Killin it, thx
Audio Source:: ....own, thx matey
Language::English
IMDB::http://www.imdb.com/title/tt0990407/

Following the death of his father, Britt Reid, heir to his father's large company, 
teams up with his late dad's assistant Kato to become a masked crime fighting team. 

Specs::

General

Format                           : AVI
Format/Info                      : Audio Video Interleave
File size                        : 1.37 GiB
Duration                         : 1h 51mn
Overall bit rate                 : 1 761 Kbps
Writing application              : VirtualDubMod 1.5.10.2 (build 2540/release)
Writing library                  : VirtualDubMod build 2540/release

Video
ID                               : 0
Format                           : MPEG-4 Visual
Format profile                   : Advanced Simple@L5
Format settings, BVOP            : Yes
Format settings, QPel            : No
Format settings, GMC             : No warppoints
Format settings, Matrix          : Default (H.263)
Muxing mode                      : Packed bitstream
Codec ID                         : XVID
Codec ID/Hint                    : XviD
Duration                         : 1h 51mn
Bit rate                         : 1 495 Kbps
Width                            : 720 pixels
Height                           : 306 pixels
Display aspect ratio             : 2.35:1
Frame rate                       : 25.000 fps
Color space                      : YUV
Chroma subsampling               : 4:2:0
Bit depth                        : 8 bits
Scan type                        : Progressive
Bits/(Pixel*Frame)               : 0.271
Stream size                      : 1.16 GiB (85%)
Writing library                  : XviD 1.2.1 (UTC 2008-12-04)

Audio
ID                               : 1
Format                           : MPEG Audio
Format version                   : Version 1
Format profile                   : Layer 3
Codec ID                         : 55
Codec ID/Hint                    : MP3
Duration                         : 1h 51mn
Bit rate mode                    : Constant
Bit rate                         : 256 Kbps
Channel(s)                       : 2 channels
Sampling rate                    : 44.1 KHz
Stream size                      : 204 MiB (15%)
Alignment                        : Split accross interleaves
Interleave, duration             : 40 ms (1.00 video frame)
Interleave, preload duration     : 500 ms



NOTES:: T0XiC-iNK brings you the first TS of Green Hornet. As always, Enjoy


::Why Complain? Whats Free Is Free::

::iNK is currently a free agent looking for work, if you would like iNK's touch, give me a email at: ...digital.ink@live.com or MSN add me.

::We are always looking for friends with unreleased DVD's, Screeners, R5's, Audio, Cams, Silvers,
...and any other good sources you may have to offer - contact us: t0xicreleases@hushmail.com

::::::::::::::::::::::::::::::::::::   Respect To   :::::::::::::::::::::::::::::::::::::
::IMAGiNE,FLAWL3SS,Hive-CM8,DiGiTALiNK,Tranz,Vik,OneTwo,Joey,bob,& our friends on utn and PA::
                       "and to all of you who support us, Thank-You"

[img]http://www.leetleech.org/images/11170434250914396118.png[/img]
[img]http://www.leetleech.org/images/44487124570969309356.png[/img]
[img]http://www.leetleech.org/images/99354420697494456576.png[/img]
[img]http://www.leetleech.org/images/99382491262570104768.png[/img]
[img]http://www.leetleech.org/images/91852884005219798430.png[/img]